<svg id="Capa_1" enable-background="new 0 0 512 512" height="512" viewBox="0 0 512 512" width="512" xmlns="http://www.w3.org/2000/svg"><g><path d="m144.927 365.344c-7.174-24.96-12.854-46.656-16.881-64.484-5.466-24.205-15.35-47.127-29.378-68.128-10.716-16.043-16.38-34.764-16.38-54.142-.001-21.841 7.344-42.881 20.779-60.02 3.068 4.676 5.562 10.109 7.108 16.428l3.116 12.73c1.107 4.521 5.131 7.678 9.785 7.678s8.678-3.157 9.785-7.678l3.116-12.729c5.312-21.696 21.731-33.02 34.568-38.7.392-.174.769-.38 1.125-.618 2.953-1.969 4.717-5.264 4.717-8.814 0-2.079-.62-4.062-1.714-5.751 2.027-.11 4.055-.161 6.08-.147 18.093.153 35.719 5.293 50.973 14.865 9.375 5.883 20.119 8.824 30.864 8.824s21.49-2.941 30.864-8.824c12.262-7.695 25.762-12.464 40.125-14.177 4.111-.49 7.046-4.22 6.556-8.331-.49-4.112-4.223-7.049-8.331-6.556-16.582 1.977-32.165 7.483-46.319 16.364-13.909 8.729-31.883 8.729-45.792 0-17.607-11.049-37.945-16.982-58.815-17.157-8.502-.074-16.981.829-25.229 2.654-8.522-6.62-16.317-16.185-19.674-29.897l-3.116-12.729c-1.107-4.521-5.131-7.678-9.785-7.678s-8.678 3.157-9.785 7.678l-3.116 12.729c-5.311 21.695-21.73 33.02-34.567 38.7-.392.174-.769.38-1.125.618-2.953 1.969-4.717 5.264-4.717 8.814s1.764 6.845 4.717 8.814c.356.238.733.445 1.125.618 5.522 2.443 11.706 5.935 17.385 10.843-16.609 20.15-25.697 45.307-25.696 71.449 0 22.351 6.538 43.953 18.906 62.469 13.003 19.466 22.161 40.697 27.221 63.103 4.09 18.108 9.841 40.086 17.095 65.323.945 3.287 3.943 5.427 7.2 5.427.686 0 1.383-.095 2.075-.294 3.98-1.142 6.278-5.295 5.135-9.274zm-21.851-317.305c5.499 16.359 16.724 29.592 32.909 38.828-16.185 9.236-27.41 22.468-32.909 38.828-5.498-16.358-16.723-29.591-32.908-38.828 16.184-9.237 27.41-22.47 32.908-38.828z"/><path d="m499.433 207.003-11.413-.083c-13.477-.098-24.234-1.938-32.693-4.442 1.688-7.815 2.556-15.824 2.556-23.887.001-52.762-37.477-99.082-89.114-110.137-4.047-.867-8.033 1.712-8.9 5.761s1.713 8.033 5.761 8.9c44.769 9.585 77.261 49.739 77.26 95.477 0 6.136-.58 12.233-1.707 18.211-6.049-3.205-9.648-6.342-11.301-7.996-1.973-1.973-3.826-4.12-5.509-6.384-3.221-4.333-8.165-6.825-13.563-6.838-.015 0-.028 0-.043 0-5.397 0-10.35 2.476-13.595 6.798-1.678 2.236-3.557 4.398-5.584 6.425-6.655 6.656-23.057 17.859-58.135 18.113l-11.413.083c-6.93.05-12.568 5.729-12.568 12.658v76.723c0 17.318 4.026 34.694 11.644 50.25 7.617 15.553 18.875 29.388 32.557 40.007l16.473 12.785c-6.026 19.793-12.794 41.209-20.158 63.763-3.891 11.915-14.051 15.809-22.272 15.469-8.217-.335-18.033-5.037-20.942-17.231-12.895-54.074-22.663-99.835-29.03-136.012-1.317-7.486-7.549-12.714-15.155-12.715 0 0 0 0-.001 0-7.605 0-13.838 5.229-15.156 12.714-6.371 36.197-16.139 81.958-29.03 136.012-2.909 12.194-12.726 16.897-20.942 17.232-8.198.331-18.381-3.553-22.271-15.47-7.769-23.794-14.883-46.332-21.141-66.986-1.201-3.963-5.392-6.2-9.348-5-3.962 1.201-6.201 5.386-5 9.348 6.29 20.756 13.434 43.396 21.237 67.292 5.345 16.372 19.921 26.51 37.133 25.796 17.213-.701 30.918-11.979 34.914-28.733 12.962-54.344 22.791-100.401 29.214-136.891.03-.176.06-.262.051-.249.137-.097.544-.096.647-.034.014.02.053.11.083.283 6.419 36.47 16.248 82.527 29.214 136.892 3.995 16.753 17.7 28.031 34.913 28.733.562.023 1.12.034 1.676.034 16.478-.001 30.289-9.993 35.46-25.83 6.72-20.583 12.952-40.236 18.578-58.58l8.402 6.521c5.557 4.312 12.486 6.687 19.514 6.687s13.957-2.375 19.515-6.687l37.546-29.141c13.682-10.619 24.94-24.453 32.557-40.007 7.62-15.559 11.646-32.935 11.646-50.253v-76.723c0-6.929-5.638-12.608-12.567-12.658zm-2.425 89.381c0 15.046-3.498 30.142-10.116 43.656-6.618 13.513-16.398 25.532-28.286 34.757l-37.545 29.14c-2.984 2.315-6.554 3.539-10.324 3.539s-7.34-1.223-10.322-3.538l-37.547-29.141c-11.887-9.226-21.668-21.245-28.286-34.757-6.618-13.514-10.116-28.61-10.116-43.656v-74.406l9.098-.066c40.426-.294 60.349-14.226 68.627-22.505 2.525-2.526 4.871-5.227 6.973-8.025.525-.7 1.23-.806 1.606-.806h.006c.448.001 1.083.139 1.567.789 2.118 2.849 4.453 5.554 6.94 8.042 6.665 6.665 26.694 22.2 68.628 22.505l9.097.066z"/><path d="m475.212 233.493c-13.108-1.48-25.299-4.254-36.237-8.246-7.272-2.653-13.835-5.811-19.509-9.387-5.304-3.341-12.154-3.341-17.456 0-5.674 3.575-12.237 6.734-19.509 9.388-10.937 3.992-23.128 6.766-36.237 8.246-5.451.615-9.561 5.219-9.561 10.709v51.542c0 27.491 12.455 52.925 34.173 69.781l33.253 25.808c1.946 1.509 4.278 2.264 6.61 2.264s4.664-.755 6.61-2.266l33.251-25.807c16.713-12.971 28.216-31.434 32.393-51.989.825-4.057-1.796-8.014-5.853-8.838-4.058-.826-8.014 1.796-8.838 5.853-3.463 17.041-13.014 32.358-26.894 43.131l-30.669 23.803-30.669-23.803c-18.031-13.995-28.374-35.113-28.374-57.938v-47.813c12.878-1.701 24.954-4.589 35.946-8.6 8.268-3.017 15.791-6.646 22.363-10.787.453-.286 1.015-.286 1.468 0 6.572 4.141 14.096 7.771 22.364 10.787 10.991 4.012 23.067 6.9 35.945 8.6v27.313c0 4.14 3.356 7.496 7.496 7.496s7.496-3.356 7.496-7.496v-31.042c-.002-5.49-4.112-10.094-9.562-10.709z"/><path d="m443.354 261.282-37.357 47.408-18.161-23.713c-2.516-3.286-7.219-3.912-10.509-1.394-3.286 2.517-3.91 7.222-1.393 10.509l24.027 31.374c1.407 1.838 3.584 2.922 5.899 2.938h.052c2.296 0 4.465-1.052 5.887-2.856l43.329-54.987c2.562-3.252 2.004-7.965-1.248-10.527-3.25-2.562-7.965-2.004-10.526 1.248z"/><path d="m57.154 293.304c-.356-.238-.733-.444-1.124-.617-8.305-3.674-13.46-9.392-15.321-16.995l-1.57-6.417c0-.001-.001-.003-.001-.004-.968-3.945-4.481-6.7-8.543-6.7-4.061 0-7.574 2.755-8.543 6.704l-1.57 6.417c-1.861 7.603-7.016 13.321-15.321 16.995-.391.173-.768.38-1.124.617-2.526 1.683-4.034 4.5-4.035 7.536 0 3.035 1.507 5.853 4.033 7.537.357.238.734.445 1.126.619 8.305 3.674 13.46 9.393 15.321 16.995l1.571 6.422c.968 3.945 4.481 6.701 8.542 6.701 4.062 0 7.575-2.755 8.544-6.705l1.57-6.417c1.861-7.602 7.016-13.321 15.321-16.995 2.484-1.19 4.731-3.782 5.159-8.156-.001-3.037-1.509-5.855-4.035-7.537zm-26.559 18.319c-2.502-4.115-5.799-7.731-9.834-10.783 4.035-3.052 7.331-6.667 9.833-10.783 2.502 4.115 5.799 7.731 9.834 10.783-4.035 3.053-7.332 6.668-9.833 10.783z"/><path d="m217.425 159.96c-8.305-3.674-13.46-9.392-15.321-16.996l-1.571-6.416c-.966-3.948-4.479-6.705-8.543-6.705s-7.577 2.757-8.543 6.704l-1.571 6.418c-1.861 7.603-7.016 13.322-15.321 16.995-.392.174-.769.381-1.126.619-2.526 1.684-4.033 4.502-4.033 7.537.001 3.035 1.509 5.853 4.035 7.536.356.238.733.444 1.124.617 8.305 3.674 13.46 9.392 15.321 16.996l1.571 6.416c.966 3.948 4.479 6.705 8.543 6.705s7.577-2.757 8.543-6.703l1.571-6.417c1.861-7.603 7.016-13.321 15.321-16.996 2.483-1.189 4.729-3.78 5.159-8.153-.023-2.213-1.512-6.435-5.159-8.157zm-25.436 18.938c-2.502-4.115-5.799-7.732-9.833-10.783 4.035-3.052 7.331-6.668 9.833-10.783 2.502 4.115 5.798 7.732 9.833 10.783-4.034 3.051-7.331 6.668-9.833 10.783z"/></g></svg>