<svg id="line" height="512" viewBox="0 0 64 64" width="512" xmlns="http://www.w3.org/2000/svg"><path d="m18 47a1 1 0 0 1 0-2 15.017 15.017 0 0 0 15-15 1 1 0 0 1 2 0 15.017 15.017 0 0 0 15 15 1 1 0 0 1 0 2 15.017 15.017 0 0 0 -15 15 1 1 0 0 1 -2 0 15.017 15.017 0 0 0 -15-15zm44-14a7.008 7.008 0 0 1 -7-7 1 1 0 0 0 -2 0 7.008 7.008 0 0 1 -7 7 1 1 0 0 0 0 2 7.009 7.009 0 0 1 7 7 1 1 0 0 0 2 0 7.009 7.009 0 0 1 7-7 1 1 0 0 0 0-2zm-21-3a1 1 0 0 0 2 0 5.006 5.006 0 0 1 5-5 1 1 0 0 0 0-2 5.006 5.006 0 0 1 -5-5 1 1 0 0 0 -2 0 5.006 5.006 0 0 1 -5 5 1 1 0 0 0 0 2 5.006 5.006 0 0 1 5 5z" fill="#c4a2fc"/><path d="m50.257 15.653-6.85-9.417a3.065 3.065 0 0 0 -2.426-1.236h-29.962a3.012 3.012 0 0 0 -2.427 1.235l-6.849 9.418a3.9 3.9 0 0 0 .184 4.8l21.663 25.434a3.166 3.166 0 0 0 4.82 0l21.663-25.43a3.9 3.9 0 0 0 .184-4.804zm-10.125-8.653-6.132 9.2-6.132-9.2zm-8 10h-12.264l6.132-9.2zm-8-10-6.132 9.2-6.132-9.2zm-20.772 9.83 6.6-9.081 6.171 9.251h-12.858c.033-.055.049-.118.087-.17zm.09 2.33a1.786 1.786 0 0 1 -.114-.16h13.91l7.031 24.609zm15.876-.16h13.348l-6.674 23.36zm29.224.16-20.827 24.449 7.032-24.609h13.908a1.776 1.776 0 0 1 -.113.16zm-12.682-2.16 6.167-9.25 6.605 9.079a1.83 1.83 0 0 1 .087.171z" fill="#151a6a"/></svg>