<?xml version="1.0" encoding="iso-8859-1"?>
<!-- Generator: Adobe Illustrator 19.0.0, SVG Export Plug-In . SVG Version: 6.00 Build 0)  -->
<svg version="1.1" id="Capa_1" xmlns="http://www.w3.org/2000/svg" xmlns:xlink="http://www.w3.org/1999/xlink" x="0px" y="0px"
	 viewBox="0 0 497.328 497.328" style="enable-background:new 0 0 497.328 497.328;" xml:space="preserve">
<g>
	<rect x="17.328" y="288.664" style="fill:#F0BC5E;" width="64" height="32"/>
	<rect x="145.328" y="288.664" style="fill:#F0BC5E;" width="64" height="32"/>
	<rect x="273.328" y="224.664" style="fill:#F0BC5E;" width="64" height="32"/>
	<rect x="409.328" y="224.664" style="fill:#F0BC5E;" width="64" height="32"/>
</g>
<path d="M98.656,224.664l-34.464-224H34.464L0,224.664h25.328v32h-16v200c0,22.056,17.944,40,40,40s40-17.944,40-40v-200h-16v-32
	H98.656z M41.328,61.272v99.392h16V61.272L80,208.664H57.328v-32h-16v32H18.656L41.328,61.272z M73.328,456.664
	c0,13.232-10.768,24-24,24s-24-10.768-24-24v-184h48V456.664z M57.328,256.664h-16v-32h16V256.664z"/>
<path d="M201.328,128.664h17.896l-27.424-128h-28.936l-27.424,128h17.888v96h-32v48h16v184c0,22.056,17.944,40,40,40
	s40-17.944,40-40v-184h16v-48h-32V128.664z M175.8,16.664h3.064l20.576,96h-44.208L175.8,16.664z M169.328,128.664h16v96h-16
	V128.664z M201.328,456.664c0,13.232-10.768,24-24,24s-24-10.768-24-24v-184h48V456.664z M217.328,256.664h-80v-16h80V256.664z"/>
<path d="M337.488,106.288c4.784-4.392,7.84-10.632,7.84-17.624v-64c0-13.232-10.768-24-24-24h-32c-13.232,0-24,10.768-24,24v64
	c0,6.992,3.056,13.232,7.84,17.624l-7.2,86.376h-16.64v16h16v248c0,22.056,17.944,40,40,40s40-17.944,40-40v-248h16v-16h-16.64
	L337.488,106.288z M321.328,96.664H300.64l28.688-28.688v20.688C329.328,93.072,325.736,96.664,321.328,96.664z M329.328,45.352
	l-46.992,46.992c-0.584-1.12-1.008-2.336-1.008-3.68V59.976l42.752-42.752c3.048,1.128,5.248,4.008,5.248,7.44V45.352z
	 M289.328,16.664h12.688l-20.688,20.688V24.664C281.328,20.256,284.92,16.664,289.328,16.664z M288.696,112.6
	c0.216,0.008,0.416,0.064,0.632,0.064h32c0.216,0,0.416-0.056,0.632-0.064l6.672,80.064h-46.608L288.696,112.6z M329.328,456.664
	c0,13.232-10.768,24-24,24s-24-10.768-24-24v-248h48V456.664z"/>
<path d="M497.328,192.664h-16.64l-6.8-81.648c9-3.464,15.44-12.144,15.44-22.352v-64c0-13.232-10.768-24-24-24h-48
	c-13.232,0-24,10.768-24,24v64c0,10.208,6.44,18.888,15.44,22.352l-6.8,81.648h-16.64v16h16v248c0,22.056,17.944,40,40,40
	s40-17.944,40-40v-248h16V192.664z M409.328,51.976l35.312-35.312h17.376l-52.688,52.688V51.976z M473.328,27.976v17.376
	l-51.312,51.312h-4.688c-3.432,0-6.312-2.2-7.44-5.248L473.328,27.976z M473.328,67.976v20.688c0,4.408-3.592,8-8,8H444.64
	L473.328,67.976z M417.328,16.664h4.688l-12.688,12.688v-4.688C409.328,20.256,412.92,16.664,417.328,16.664z M424.688,112.664
	h33.28l6.664,80h-46.608L424.688,112.664z M465.328,456.664c0,13.232-10.768,24-24,24s-24-10.768-24-24v-248h48V456.664z"/>
<rect x="41.328" y="448.664" width="16" height="16"/>
<rect x="169.328" y="448.664" width="16" height="16"/>
<rect x="297.328" y="448.664" width="16" height="16"/>
<rect x="433.328" y="448.664" width="16" height="16"/>
<g>
</g>
<g>
</g>
<g>
</g>
<g>
</g>
<g>
</g>
<g>
</g>
<g>
</g>
<g>
</g>
<g>
</g>
<g>
</g>
<g>
</g>
<g>
</g>
<g>
</g>
<g>
</g>
<g>
</g>
</svg>
