<svg height="512" viewBox="0 0 64 64" width="512" xmlns="http://www.w3.org/2000/svg"><g id="hand-hands-clean-protect-protection"><path d="m32 30a1 1 0 0 0 -.615-.923l-12-5a1.007 1.007 0 0 0 -.77 0l-12 5a1 1 0 0 0 -.615.923v8.858a10.931 10.931 0 0 0 3.222 7.778l9.071 9.071a1 1 0 0 0 1.414 0l9.071-9.071a10.931 10.931 0 0 0 3.222-7.778zm-2 8.858a8.945 8.945 0 0 1 -2.636 6.364l-8.364 8.364-8.364-8.364a8.945 8.945 0 0 1 -2.636-6.364v-8.191l11-4.584 11 4.584z"/><path d="m16.172 38.757-1.414 1.414 3.535 3.536a1 1 0 0 0 1.414 0l8.485-8.485-1.414-1.414-7.778 7.778z"/><path d="m60.4 20.64a4.006 4.006 0 0 0 -5.47 1.47l-4.93 8.54v-18.65a3.995 3.995 0 0 0 -4-4 3.906 3.906 0 0 0 -2 .56v-2.56a4 4 0 0 0 -8 0v2.55a3.953 3.953 0 0 0 -2-.55 4 4 0 0 0 -4 4v2.55a3.953 3.953 0 0 0 -2-.55 4 4 0 0 0 -4 4v3.81l-4.65-1.75a1.051 1.051 0 0 0 -.7 0l-16 6a1.007 1.007 0 0 0 -.65.94v12a14.538 14.538 0 0 0 4.39 10.46l11.89 12.24a1.014 1.014 0 0 0 1.44 0l9.28-9.55v8.85a1 1 0 0 0 1 1h20a1 1 0 0 0 1-1v-10.76l4.89-9.79a1 1 0 0 0 .11-.45v-3.73l5.87-10.16a4.019 4.019 0 0 0 -1.47-5.47zm-28.4-8.64a2.006 2.006 0 0 1 2-2 2.015 2.015 0 0 1 2 2v15a1.007 1.007 0 0 0 -.65-.94l-3.35-1.25zm-6 6a2.006 2.006 0 0 1 2-2 2.015 2.015 0 0 1 2 2v6.06l-4-1.5zm-7 41.57-11.18-11.51a.01.01 0 0 1 -.01-.01 12.582 12.582 0 0 1 -3.81-9.05v-11.31l15-5.62 15 5.62v11.31a12.591 12.591 0 0 1 -3.82 9.06zm41.13-34.46-6 10.39a1.063 1.063 0 0 0 -.13.5v3.76l-4.89 9.79a1 1 0 0 0 -.11.45v10h-18v-9.91l.61-.63a14.538 14.538 0 0 0 4.39-10.46v-10h2v-23a2 2 0 0 1 4 0v23h2v-17a2.006 2.006 0 0 1 2-2 2.015 2.015 0 0 1 2 2v20.8c-2.42 1.33-7 4.36-7 8.2h2c0-3.09 5.21-6.17 7.22-7.09a1.049 1.049 0 0 0 .45-.41l6-10.39a2 2 0 0 1 1.21-.94 2.015 2.015 0 0 1 2.52 1.94 1.949 1.949 0 0 1 -.27 1z"/><path d="m2.705 9.956 4.081 1.258 1.258 4.08a1 1 0 0 0 1.912 0l1.258-4.08 4.086-1.258a1 1 0 0 0 0-1.912l-4.086-1.258-1.258-4.08a1 1 0 0 0 -1.912 0l-1.258 4.08-4.081 1.258a1 1 0 0 0 0 1.912zm5.176-1.414a1 1 0 0 0 .661-.662l.458-1.486.458 1.486a1 1 0 0 0 .661.662l1.487.458-1.487.458a1 1 0 0 0 -.661.662l-.458 1.486-.458-1.486a1 1 0 0 0 -.661-.662l-1.487-.458z"/><path d="m58 2h2v2h-2z"/><path d="m56 4h2v2h-2z"/><path d="m60 4h2v2h-2z"/><path d="m58 6h2v2h-2z"/><path d="m25 2h2v2h-2z"/><path d="m23 4h2v2h-2z"/><path d="m27 4h2v2h-2z"/><path d="m25 6h2v2h-2z"/><path d="m18 12h2v2h-2z"/><path d="m16 14h2v2h-2z"/><path d="m20 14h2v2h-2z"/><path d="m18 16h2v2h-2z"/><path d="m54 12h2v2h-2z"/><path d="m52 14h2v2h-2z"/><path d="m56 14h2v2h-2z"/><path d="m54 16h2v2h-2z"/></g></svg>